HIERARCHY
ROOT simHips
{
  OFFSET 57.0683 98.7255 277.901
  CHANNELS 6 Xposition Yposition Zposition Zrotation Xrotation Yrotation
  JOINT simSpine
  {
    OFFSET -0.000355721 21.3001 -0.016921
    CHANNELS 3 Zrotation Xrotation Yrotation
    JOINT simLeftArm
    {
      OFFSET 13.5181 21.3012 0
      CHANNELS 3 Zrotation Xrotation Yrotation
      JOINT simLeftForeArm
      {
        OFFSET 24.5783 0 0
        CHANNELS 3 Zrotation Xrotation Yrotation
        JOINT simLeftHand
        {
          OFFSET 24.5783 0 0
          CHANNELS 3 Zrotation Xrotation Yrotation
          End Site
          {
            OFFSET 7.32568 1.52588e-05 0.0169305
          }
        }
      }
    }
    JOINT simHead
    {
      OFFSET 0 27.4458 -0.00489235
      CHANNELS 3 Zrotation Xrotation Yrotation
      End Site
      {
        OFFSET 0 0 0
      }
    }
    JOINT simRightArm
    {
      OFFSET -13.5174 21.3012 0
      CHANNELS 3 Zrotation Xrotation Yrotation
      JOINT simRightForeArm
      {
        OFFSET -24.5783 0 0
        CHANNELS 3 Zrotation Xrotation Yrotation
        JOINT simRightHand
        {
          OFFSET -24.5783 0 0
          CHANNELS 3 Zrotation Xrotation Yrotation
          End Site
          {
            OFFSET -7.32568 1.52588e-05 0.0169305
          }
        }
      }
    }
  }
  JOINT simRightUpLeg
  {
    OFFSET -8.44614 -9.41038 0.835684
    CHANNELS 3 Zrotation Xrotation Yrotation
    JOINT simRightLeg
    {
      OFFSET 0 -40.9639 0
      CHANNELS 3 Zrotation Xrotation Yrotation
      JOINT simRightFoot
      {
        OFFSET 0 -40.9639 0
        CHANNELS 3 Zrotation Xrotation Yrotation
        End Site
        {
          OFFSET 0.50614 -9.67405 14.6709
        }
      }
    }
  }
  JOINT simLeftUpLeg
  {
    OFFSET 8.44614 -9.41038 0.835684
    CHANNELS 3 Zrotation Xrotation Yrotation
    JOINT simLeftLeg
    {
      OFFSET 0 -40.9639 0
      CHANNELS 3 Zrotation Xrotation Yrotation
      JOINT simLeftFoot
      {
        OFFSET 0 -40.9639 0
        CHANNELS 3 Zrotation Xrotation Yrotation
        End Site
        {
          OFFSET -0.50614 -9.67405 14.6709
        }
      }
    }
  }
}
MOTION
Frames:	22
Frame Time:	0.0333333
54.2865 100.721 -197.648 6.13469 -10.1382 163.01 -2.25007 19.7585 1.75322 -74.1549 29.6974 -13.3267 23.3443 -7.07292 -27.8927 1.01814 10.7326 1.19034 8.69807 -18.5663 6.25134 79.1311 62.8487 3.22498 -24.6044 -10.0725 36.7009 0.419439 -13.4758 1.10582 7.59408 -18.7426 -1.30284 4.39648 28.608 -1.36417 5.81794 -1.4647 -20.9898 6.25882 -16.7836 -11.167 -4.67816 35.8953 1.64711 -3.57948 -2.73283 8.14228 
55.001 100.503 -198.561 5.5117 -9.80356 162.295 -2.38978 18.0442 2.0716 -75.7838 29.1427 -10.8174 23.3679 -7.08183 -27.9075 1.03057 10.6715 1.19051 7.74839 -16.7333 6.90427 80.3895 63.4342 1.99072 -24.0445 -9.61583 35.6199 0.416362 -14.2217 1.13246 7.49461 -17.0393 0.0551944 4.29968 27.1373 -1.11775 5.80859 -1.77483 -21.718 6.00575 -16.0893 -10.0797 -4.63832 36.4794 1.64628 -3.12808 -3.03262 7.18259 
55.7474 100.247 -199.322 4.9597 -9.32551 161.895 -2.50552 17.2141 2.36237 -77.0746 27.943 -9.22401 23.2979 -7.00418 -27.7246 1.02904 10.5648 1.20432 7.00765 -15.5022 5.80755 80.5145 63.8328 2.06379 -23.4067 -9.10832 34.391 0.42987 -14.835 1.163 7.46012 -15.0913 1.64742 4.22347 25.4458 -0.84453 5.63244 -2.4005 -22.5256 5.84715 -15.767 -8.72608 -4.58228 37.754 1.71554 -2.70308 -3.34391 6.20818 
56.5061 100.253 -200.138 4.68003 -8.9089 161.388 -2.27409 16.4731 2.90055 -78.6518 26.2813 -7.66605 23.1465 -6.89174 -27.4459 1.04639 10.9415 1.2148 5.36318 -14.2264 6.31318 80.8025 63.9843 1.95508 -22.6351 -8.54327 32.9619 0.41447 -15.3247 1.19056 7.69738 -13.2983 3.08669 4.16822 24.1586 -0.621744 5.59189 -2.72207 -23.5345 6.35229 -15.6982 -6.45393 -4.43645 39.3968 1.79029 -1.69379 -2.93664 3.20359 
57.1972 100.343 -200.83 4.55208 -8.6005 160.981 -1.91384 16.1876 3.51539 -80.1775 24.5898 -6.52266 23.0221 -6.78695 -27.2066 1.07523 10.9843 1.2096 4.01387 -13.9372 5.68584 80.2703 63.9757 2.5734 -21.9246 -8.03858 31.6524 0.414542 -16.0571 1.22449 7.86747 -11.7992 3.6494 4.08812 23.1019 -0.427171 5.69627 -2.60358 -23.8991 7.61176 -16.9967 -2.68297 -4.2937 42.7333 2.03007 -0.632079 -0.949045 -0.774828 
57.8279 100.446 -201.687 4.72769 -8.4095 160.761 -1.0435 15.7487 4.61016 -81.6755 23.9918 -5.30794 22.7087 -6.60991 -26.6605 1.08532 10.992 1.24494 2.82996 -12.7772 5.18183 81.1975 63.6023 1.02828 -21.7301 -7.92206 31.2987 0.434758 -17.1344 1.23406 8.10111 -9.71551 3.95085 4.00065 21.08 -0.155238 5.96475 -2.06758 -24.0028 9.61823 -19.5448 1.15007 -4.32473 48.166 2.56116 1.13096 0.945638 -6.5374 
58.2599 100.354 -202.332 5.29497 -7.98794 161.794 0.411622 16.5855 4.81453 -82.8905 23.5982 -5.028 22.7167 -6.592 -26.6473 1.13372 11.0343 1.20158 1.75928 -12.9083 4.40244 81.0952 63.1098 0.319374 -21.8547 -8.03636 31.5703 0.459886 -18.9085 1.23114 8.72725 -7.47418 4.58366 3.9944 18.8778 0.097867 5.69366 -2.64551 -25.3769 11.5403 -22.9424 2.20888 -4.82303 54.241 3.55147 1.68503 1.50146 -9.39703 
58.5897 100.291 -203.161 5.87184 -7.39228 162.694 1.82693 17.4129 5.36039 -84.1752 24.3344 -4.23711 22.7139 -6.61602 -26.6331 1.12575 10.1532 1.21599 0.394853 -13.0597 3.83505 81.9484 62.5788 -1.41902 -22.0446 -8.21278 31.9725 0.532978 -21.3201 1.23927 9.23877 -5.28553 4.96894 3.98901 17.1216 0.306219 5.63749 -2.7717 -27.0783 13.1898 -25.8678 2.92468 -5.57377 58.3412 4.71375 0.911409 0.0937935 -8.04259 
58.8248 100.36 -204.162 5.96883 -7.32887 163.413 2.60218 18.4041 5.79684 -85.6873 23.4788 -3.66222 23.2503 -6.97022 -27.6172 1.14468 10.3934 1.15265 -0.282578 -14.3809 2.57296 81.0195 61.8439 -0.609231 -21.9298 -8.12456 31.7488 0.531455 -21.6593 1.23906 9.30918 -3.75995 5.32947 4.0089 15.8222 0.477831 4.88827 -3.8917 -27.8298 14.2444 -28.9265 3.42334 -6.05973 58.4344 5.30957 1.79074 0.0580187 -10.7373 
59.0521 100.503 -205.294 5.15519 -7.34671 163.818 1.93469 18.2378 6.27501 -86.1696 23.4279 -2.88936 22.7441 -6.64721 -26.6673 1.12935 10.1564 1.21467 -0.177952 -14.5399 2.49149 81.6574 61.4802 -0.790943 -21.7706 -8.00343 31.4339 0.48325 -19.6309 1.22197 8.4972 -2.46948 5.91419 4.07821 14.0333 0.631335 4.77677 -3.93377 -29.1274 14.0628 -31.3818 4.01449 -6.23412 55.0172 5.37012 0.155993 0.193316 -5.05652 
59.227 100.637 -206.641 5.0873 -7.28365 164.344 2.20857 18.8595 6.47188 -86.9972 22.6945 -2.37934 22.4651 -6.47191 -26.1772 1.19798 10.6951 1.19553 -0.675251 -15.6678 1.99238 80.5434 61.5923 0.447696 -21.6398 -7.88657 31.1377 0.453479 -17.6233 1.2109 8.28103 -0.259348 6.26215 4.18826 11.3227 0.844253 4.93453 -3.34243 -30.7914 14.2396 -32.7555 4.69633 -6.09968 49.3154 4.91278 -2.86754 1.34863 3.15722 
59.2623 100.728 -208.094 4.98754 -7.4684 165.194 2.71839 18.6941 6.45184 -88.1294 21.8547 -1.17592 22.2547 -6.35595 -25.834 1.29308 11.7742 1.14812 -1.18348 -16.2022 1.80568 80.6642 61.9043 -0.304743 -21.8124 -8.01801 31.4641 0.424298 -17.521 1.18835 7.79949 2.23335 6.18143 4.29042 7.7486 1.09779 5.48265 -2.04475 -31.786 14.0367 -33.8797 5.10704 -6.09052 42.8495 4.44237 -6.25013 1.66832 11.4158 
59.225 100.801 -209.713 5.32033 -7.74172 165.652 3.63337 18.871 6.58264 -88.7509 21.5273 -0.745409 21.9557 -6.16227 -25.2909 1.44093 12.2807 1.06053 -1.8479 -17.4383 2.16055 80.4444 61.6952 -0.692545 -22.0434 -8.18529 31.8851 0.418443 -17.8975 1.17032 7.75108 3.67892 5.58187 4.50784 6.448 1.38739 6.51244 -2.08013 -31.635 14.307 -34.7763 5.64905 -6.3105 37.7491 4.15526 -8.06154 -0.280625 17.8003 
58.872 100.71 -211.248 6.43059 -8.02605 166.124 5.662 19.2889 6.55082 -89.8171 21.1874 -0.176454 21.9039 -6.12991 -25.1978 1.5293 12.6123 0.991161 -3.21167 -18.4113 1.38992 80.0504 60.8983 -1.25272 -22.3036 -8.3691 32.3667 0.389181 -18.4696 1.15322 8.12122 6.59331 4.58752 4.90278 2.51943 1.8876 8.23202 -0.753895 -30.9787 15.0057 -35.6648 6.27204 -6.75656 35.3651 4.18706 -8.57903 -3.98693 25.5592 
58.4563 100.575 -213.167 6.95913 -8.48078 166.684 6.79886 19.0098 6.57278 -90.52 20.6599 0.345613 21.8425 -6.09395 -25.0943 1.5733 12.7817 0.963698 -2.90267 -20.0597 2.56475 80.5615 59.4434 -2.20944 -22.6502 -8.60062 32.9801 0.360999 -18.6078 1.13759 8.32786 7.30582 3.72358 4.86476 2.59838 1.93272 8.10637 -0.9309 -31.1023 14.0915 -35.8116 4.37115 -7.51215 34.5064 4.21005 -4.10392 -11.665 29.5385 
57.9558 100.158 -215.154 7.84753 -8.69134 167.376 8.17765 18.7481 6.47501 -91.0511 20.5383 1.07939 21.7934 -6.08343 -25.0073 1.54978 12.9657 0.997037 -2.94746 -20.9617 3.07553 81.6784 57.9971 -3.95253 -23.2254 -9.04373 34.079 0.352388 -19.0526 1.10047 8.77935 8.42152 2.78454 4.82874 2.70358 2.00869 7.27339 -2.09246 -30.8956 14.0731 -35.6291 6.02096 -7.62049 34.8405 4.212 -3.61963 -12.2579 31.2993 
57.3075 99.9802 -217.216 8.30751 -8.78158 168.268 8.70743 18.9968 6.22299 -90.6906 20.6608 0.891806 21.863 -6.12556 -25.1237 1.53282 12.8569 1.00726 -2.13973 -23.2996 4.23502 82.0677 56.0688 -4.23442 -23.7674 -9.46495 35.1243 0.338749 -18.8867 1.06925 8.73795 9.56008 1.53077 4.75595 2.81261 2.08042 7.19977 -2.16806 -30.6408 13.2112 -35.2145 4.72974 -7.65846 35.3228 4.22979 -3.21346 -12.6725 31.6638 
56.5066 99.8472 -219.398 7.23588 -9.11157 169.663 7.36383 17.7821 5.77539 -90.1449 20.0622 1.30162 21.9592 -6.19276 -25.3197 1.47051 13.074 1.05692 -0.832573 -25.1853 5.37884 84.1156 54.298 -5.65125 -24.0101 -9.67668 35.6187 0.348423 -18.9857 1.05408 7.26156 9.31766 -0.413914 4.47696 4.3438 1.9851 7.73472 -1.26444 -30.6476 12.1371 -35.2902 8.52935 -7.33544 35.9427 4.22826 -6.19773 -8.29901 30.0012 
55.5622 99.8838 -221.389 6.96823 -9.13683 171.79 7.18948 18.1173 5.16073 -89.1773 20.5228 0.0870126 21.9859 -6.16354 -25.319 1.37319 12.9992 1.10225 -0.663736 -27.538 4.95591 84.3542 52.2898 -5.48891 -24.3327 -9.93158 36.2455 0.355704 -18.5151 1.04803 6.73279 5.79359 -3.78058 3.25518 12.758 1.32222 5.54449 -2.18643 -28.1373 11.1647 -34.6799 10.9739 -6.96268 36.0258 4.0437 -8.09509 -4.90454 27.4717 
54.6635 100.292 -223.454 6.89461 -9.11981 173.527 7.27629 18.134 5.16038 -88.5434 21.6361 -0.797076 21.9583 -6.19846 -25.3118 1.22176 12.4429 1.22475 -0.657848 -28.9169 4.87695 84.2565 51.6617 -5.47631 -24.5949 -10.1322 36.7199 0.336289 -16.7628 1.01988 4.97532 0.45075 -7.47539 2.36778 24.473 0.865281 6.60803 -0.922211 -24.0018 9.68985 -33.2826 10.8409 -6.797 34.9834 3.74773 -8.65786 -3.84613 26.9023 
53.4871 100.747 -225.329 7.36167 -8.92519 175.374 8.53321 18.5039 4.75006 -88.548 22.5431 -1.61134 22.3152 -6.438 -25.9865 1.16925 12.9223 1.2195 -1.5782 -29.4503 4.03426 83.0684 52.3972 -5.25856 -25.1465 -10.6191 37.7707 0.336896 -14.4011 0.967264 2.65055 -4.41711 -9.94018 2.08575 34.9188 0.270813 8.0048 3.51284 -19.5373 8.04112 -31.5351 9.07348 -6.67009 33.5561 3.40734 -8.98235 -3.5406 27.2977 
52.5931 101.157 -226.803 7.38266 -8.35111 177.19 8.52918 19.5676 4.44714 -87.3209 23.9931 -2.97766 22.5734 -6.67163 -26.5227 1.03828 11.8135 1.29482 -1.1039 -30.3612 3.75516 81.798 52.8004 -4.11452 -25.8544 -11.2751 39.1776 0.39556 -10.8063 0.915792 0.458621 -8.97514 -10.158 2.11209 44.3579 -0.457244 8.93631 7.25928 -17.5625 6.24414 -29.2465 7.10891 -6.4773 31.6357 2.91582 -8.58746 -4.06317 26.3376 
